<?xml version="1.0" standalone="no"?>
<!DOCTYPE svg PUBLIC "-//W3C//DTD SVG 20010904//EN"
 "http://www.w3.org/TR/2001/REC-SVG-20010904/DTD/svg10.dtd">
<svg version="1.0" xmlns="http://www.w3.org/2000/svg"
 width="512.000000pt" height="512.000000pt" viewBox="0 0 512.000000 512.000000"
 preserveAspectRatio="xMidYMid meet">

<g transform="translate(0.000000,512.000000) scale(0.100000,-0.100000)"
fill="#000000" stroke="none">
<path d="M1496 3422 c-16 -4 -31 -12 -33 -18 -8 -23 88 -46 102 -24 3 6 15 10
26 10 10 0 19 -4 19 -10 0 -5 -9 -10 -19 -10 -20 0 -38 -17 -28 -26 7 -7 77
28 77 38 0 22 -100 49 -144 40z m61 -18 c-3 -3 -12 -4 -19 -1 -8 3 -5 6 6 6
11 1 17 -2 13 -5z"/>
<path d="M1740 3397 c-14 -5 -35 -10 -48 -11 -13 -1 -26 -7 -30 -13 -4 -6 -35
-25 -70 -43 -69 -35 -80 -49 -64 -84 8 -18 7 -23 -4 -23 -8 0 -14 5 -14 11 0
6 -16 24 -35 39 -20 16 -33 32 -30 36 2 5 -4 11 -16 14 -26 7 -33 -11 -25 -65
4 -24 7 -53 7 -65 1 -12 4 -22 8 -21 3 0 9 -1 14 -2 4 -1 12 -3 19 -4 7 0 18
-12 24 -25 14 -27 57 -37 74 -16 6 7 10 31 8 52 -2 28 1 37 11 35 7 -1 20 3
29 10 13 11 15 10 9 -5 -6 -16 -5 -16 21 0 15 9 38 27 52 39 l25 22 83 -48
c45 -27 82 -46 82 -43 0 3 7 0 15 -7 13 -11 20 -9 43 11 15 13 30 29 34 34 11
15 -14 35 -48 39 -16 2 -33 4 -37 5 -5 0 -6 5 -3 10 5 8 -49 21 -89 21 -20 -1
-20 -1 0 -16 18 -13 17 -14 -15 -8 -47 9 -49 12 -13 26 20 8 34 22 43 46 18
49 -7 70 -60 49z m60 -12 c0 -9 -61 -36 -70 -30 -15 10 -12 23 8 28 24 7 62 8
62 2z m-102 -49 c-28 -26 -89 -58 -103 -52 -27 10 -16 23 42 49 56 25 85 27
61 3z m-208 -102 c5 -13 17 -27 25 -30 8 -4 15 -13 15 -21 0 -9 -5 -11 -12 -7
-7 5 -27 7 -44 5 -27 -2 -33 2 -38 23 -3 14 -4 37 0 51 5 21 9 23 26 14 10 -6
23 -21 28 -35z"/>
<path d="M1786 3021 c-15 -16 -20 -59 -31 -258 -8 -131 -16 -258 -17 -283 l-3
-45 83 -3 84 -3 -4 155 c-1 85 -2 154 -2 153 1 -1 47 -71 103 -154 148 -225
161 -217 172 107 4 118 11 243 14 276 6 58 5 62 -17 68 -13 3 -49 6 -82 6
l-59 0 5 -150 c3 -83 2 -147 -2 -143 -4 4 -41 62 -84 129 -108 170 -124 185
-160 145z"/>
<path d="M2354 3033 l-91 -4 5 -49 c2 -27 -2 -102 -9 -167 -8 -65 -14 -159
-14 -210 0 -87 1 -93 28 -121 39 -41 93 -52 244 -51 174 1 176 2 185 69 4 30
4 58 0 61 -4 3 -58 2 -121 -3 -143 -11 -161 -3 -161 72 l0 49 123 3 122 3 0
55 0 55 -119 0 -118 0 4 52 c3 29 8 56 12 60 4 5 62 10 129 13 l122 5 3 58 3
57 -128 -2 c-70 -1 -169 -4 -219 -5z"/>
<path d="M2804 3033 c-20 -4 -21 -11 -27 -221 -4 -119 -10 -251 -13 -294 l-7
-76 78 -7 c131 -13 255 -2 306 26 54 30 89 87 89 147 0 56 -21 95 -70 131
l-38 28 28 16 c31 18 60 72 60 110 0 29 -35 83 -70 108 -14 11 -49 23 -79 29
-52 10 -214 12 -257 3z m217 -113 c22 -12 25 -52 5 -69 -8 -7 -31 -15 -52 -18
-33 -5 -37 -4 -31 11 4 10 7 33 7 52 0 30 3 34 26 34 14 0 34 -5 45 -10z m31
-247 c27 -24 23 -78 -7 -109 -20 -20 -33 -25 -68 -22 -23 2 -41 6 -39 11 1 4
2 39 2 78 l0 72 47 -7 c25 -3 55 -14 65 -23z"/>
<path d="M3420 3031 c-117 -38 -164 -121 -118 -211 26 -51 66 -81 150 -111 95
-35 135 -102 87 -150 -25 -25 -60 -21 -133 17 -27 14 -52 22 -55 17 -4 -4 -22
-27 -40 -51 l-33 -42 69 -32 c93 -43 197 -50 270 -19 72 32 114 78 120 134 11
91 -33 152 -147 207 -116 55 -115 54 -118 86 -7 69 58 68 89 -1 l19 -43 68 25
c37 14 71 29 75 33 13 12 -68 105 -109 125 -42 21 -153 30 -194 16z"/>
<path d="M4012 3020 c-17 -19 -238 -558 -231 -564 2 -2 35 -9 73 -15 79 -14
78 -14 97 61 l11 48 59 0 c32 0 62 0 66 1 5 0 17 -27 27 -60 14 -43 25 -61 37
-61 23 0 121 19 127 25 3 2 -16 60 -41 127 -25 68 -69 188 -97 267 -68 196
-84 218 -128 171z m38 -277 c7 -32 15 -64 17 -70 4 -9 -7 -13 -37 -13 -30 0
-41 4 -37 13 2 6 10 38 17 70 7 31 16 57 20 57 4 0 13 -26 20 -57z"/>
<path d="M4329 3018 c-12 -21 -19 -134 -33 -460 l-5 -128 75 0 74 0 -1 53 c0
28 -4 91 -7 140 -4 48 -6 87 -5 87 1 0 21 -31 43 -69 46 -77 73 -106 90 -96 6
4 31 42 57 86 25 44 47 78 49 76 2 -2 -3 -59 -11 -128 -8 -68 -15 -130 -15
-136 0 -9 22 -13 75 -13 l75 0 1 58 c0 31 4 152 8 267 9 228 3 278 -35 283
-35 5 -72 -35 -145 -160 l-71 -120 -69 123 c-38 68 -77 131 -86 141 -22 25
-50 23 -64 -4z"/>
<path d="M560 2973 c0 -9 8 -25 17 -35 18 -20 12 -32 -24 -43 -17 -5 -23 -2
-23 9 0 8 4 17 9 20 5 4 4 17 -2 31 -10 21 -17 24 -37 20 -103 -24 -234 -134
-291 -245 -32 -65 -33 -66 -31 -200 1 -149 15 -203 53 -213 17 -5 20 -11 17
-31 -7 -34 24 -65 46 -47 22 18 114 41 168 41 72 0 150 -20 170 -44 13 -15 16
-16 12 -4 -3 9 1 27 10 39 17 25 12 63 -11 90 -9 10 -12 26 -8 42 6 23 3 26
-33 32 -23 4 -49 2 -60 -4 -11 -6 -22 -8 -25 -4 -4 3 -13 0 -21 -6 -21 -18
-100 63 -92 93 3 12 6 35 6 53 0 23 10 42 35 67 19 20 35 42 35 51 0 8 4 15 9
15 17 0 21 32 6 44 -11 8 -13 19 -7 41 8 26 13 30 40 27 36 -2 41 11 16 40
-16 16 -15 18 2 25 11 5 37 21 60 36 33 23 40 32 36 52 -4 22 -10 25 -43 25
-30 0 -39 -4 -39 -17z m-37 -43 c-6 -22 -21 -35 -29 -27 -7 7 15 47 25 47 5 0
7 -9 4 -20z"/>
<path d="M715 2962 c-11 -2 -24 -9 -30 -14 -7 -7 -1 -8 20 -3 44 10 53 26 10
17z"/>
<path d="M693 2807 c15 -12 27 -26 27 -31 0 -14 -29 -36 -34 -27 -4 5 0 12 6
15 9 3 7 9 -6 20 -25 20 -37 20 -30 1 4 -8 1 -15 -5 -15 -15 0 -14 37 2 44 6
3 -1 4 -18 1 -17 -3 -43 -20 -60 -40 -16 -19 -36 -35 -42 -35 -7 0 -13 -4 -13
-10 0 -13 1 -13 43 5 20 8 53 15 73 15 32 0 36 -3 31 -20 -4 -16 2 -24 31 -35
26 -12 37 -13 43 -4 5 9 18 9 47 2 61 -16 86 -12 90 15 2 12 0 22 -5 21 -31
-5 -55 4 -65 26 -14 30 -42 35 -33 5 5 -14 2 -20 -10 -20 -9 0 -14 4 -10 9 6
11 -60 81 -77 81 -6 0 1 -10 15 -23z"/>
<path d="M820 2811 c-12 -24 0 -34 33 -25 14 3 28 1 31 -5 4 -6 17 -11 29 -11
l22 1 -24 19 c-13 11 -32 20 -42 20 -10 0 -19 5 -19 10 0 17 -19 11 -30 -9z"/>
<path d="M970 2790 c0 -10 5 -22 10 -25 6 -3 10 -14 10 -25 0 -16 18 -30 41
-30 10 0 1 28 -15 49 -6 7 -11 21 -11 29 0 8 -8 16 -17 18 -12 1 -18 -4 -18
-16z"/>
<path d="M990 2655 c0 -15 46 -55 58 -50 8 3 21 0 28 -6 10 -8 14 -8 14 0 0 6
-11 13 -24 17 -14 3 -32 14 -42 25 -16 18 -34 25 -34 14z"/>
<path d="M870 2647 c0 -12 49 -99 66 -117 12 -12 14 -12 14 1 0 9 -9 24 -20
34 -11 10 -18 21 -15 24 2 4 -7 20 -20 37 -13 16 -24 25 -25 21z"/>
<path d="M1055 2549 c-16 -10 -47 -24 -68 -30 -44 -12 -41 -31 3 -22 17 3 30
1 30 -4 0 -12 -48 -63 -88 -92 -28 -21 -32 -30 -32 -72 0 -44 -3 -50 -30 -64
-16 -9 -30 -23 -30 -32 0 -9 -18 -38 -41 -65 -29 -35 -36 -48 -24 -48 11 0 15
-5 11 -15 -5 -13 -1 -13 32 1 20 8 56 26 79 39 111 66 203 239 202 383 0 47
-2 48 -44 21z m-100 -300 c-25 -38 -44 -46 -52 -22 -2 6 13 28 34 48 45 44 55
30 18 -26z"/>
<path d="M840 2390 c0 -5 5 -10 10 -10 6 0 10 5 10 10 0 6 -4 10 -10 10 -5 0
-10 -4 -10 -10z"/>
</g>
</svg>
